<?xml version="1.0" encoding="UTF-8" standalone="no"?>
<!DOCTYPE svg PUBLIC "-//W3C//DTD SVG 1.1//EN"
 "http://www.w3.org/Graphics/SVG/1.1/DTD/svg11.dtd">
<!-- Generated by graphviz version 2.40.1 (20161225.0304)
 -->
<!-- Title: dependencies Pages: 1 -->
<svg width="2360pt" height="284pt"
 viewBox="0.00 0.00 2360.00 284.00" xmlns="http://www.w3.org/2000/svg" xmlns:xlink="http://www.w3.org/1999/xlink">
<g id="graph0" class="graph" transform="scale(1 1) rotate(0) translate(4 280)">
<title>dependencies</title>
<polygon fill="#ffffff" stroke="transparent" points="-4,4 -4,-280 2356,-280 2356,4 -4,4"/>
<text text-anchor="start" x="1155.0091" y="-42.4" font-family="sans-serif" font-weight="bold" font-size="14.00" fill="#000000">Legend</text>
<polygon fill="#ffffb3" stroke="transparent" points="942,-10 942,-30 962,-30 962,-10 942,-10"/>
<text text-anchor="start" x="965.629" y="-15.4" font-family="sans-serif" font-size="14.00" fill="#000000"> &#160;Declarations</text>
<polygon fill="#8dd3c7" stroke="transparent" points="1055,-10 1055,-30 1075,-30 1075,-10 1055,-10"/>
<text text-anchor="start" x="1078.7251" y="-15.4" font-family="sans-serif" font-size="14.00" fill="#000000"> &#160;Module</text>
<polygon fill="#80b1d3" stroke="transparent" points="1141,-10 1141,-30 1161,-30 1161,-10 1141,-10"/>
<text text-anchor="start" x="1164.7812" y="-15.4" font-family="sans-serif" font-size="14.00" fill="#000000"> &#160;Bootstrap</text>
<polygon fill="#fdb462" stroke="transparent" points="1238,-10 1238,-30 1258,-30 1258,-10 1238,-10"/>
<text text-anchor="start" x="1261.6732" y="-15.4" font-family="sans-serif" font-size="14.00" fill="#000000"> &#160;Providers</text>
<polygon fill="#fb8072" stroke="transparent" points="1334,-10 1334,-30 1354,-30 1354,-10 1334,-10"/>
<text text-anchor="start" x="1357.7258" y="-15.4" font-family="sans-serif" font-size="14.00" fill="#000000"> &#160;Exports</text>
<g id="clust1" class="cluster">
<title>cluster_AgentslistModule</title>
<polygon fill="none" stroke="#000000" stroke-dasharray="1,5" points="8,-70 8,-268 364,-268 364,-70 8,-70"/>
</g>
<g id="clust2" class="cluster">
<title>cluster_AgentslistModule_declarations</title>
<polygon fill="none" stroke="#000000" points="202,-78 202,-130 356,-130 356,-78 202,-78"/>
</g>
<g id="clust4" class="cluster">
<title>cluster_AgentslistModule_imports</title>
<polygon fill="none" stroke="#000000" points="16,-78 16,-130 194,-130 194,-78 16,-78"/>
</g>
<g id="clust5" class="cluster">
<title>cluster_AgentslistModule_exports</title>
<polygon fill="none" stroke="#000000" points="112,-208 112,-260 270,-260 270,-208 112,-208"/>
</g>
<g id="clust14" class="cluster">
<title>cluster_AgentsModule</title>
<polygon fill="none" stroke="#000000" stroke-dasharray="1,5" points="372,-70 372,-268 692,-268 692,-70 372,-70"/>
</g>
<g id="clust15" class="cluster">
<title>cluster_AgentsModule_declarations</title>
<polygon fill="none" stroke="#000000" points="548,-78 548,-130 684,-130 684,-78 548,-78"/>
</g>
<g id="clust17" class="cluster">
<title>cluster_AgentsModule_imports</title>
<polygon fill="none" stroke="#000000" points="380,-78 380,-130 540,-130 540,-78 380,-78"/>
</g>
<g id="clust18" class="cluster">
<title>cluster_AgentsModule_exports</title>
<polygon fill="none" stroke="#000000" points="467,-208 467,-260 607,-260 607,-208 467,-208"/>
</g>
<g id="clust27" class="cluster">
<title>cluster_AgentupdateModule</title>
<polygon fill="none" stroke="#000000" stroke-dasharray="1,5" points="700,-70 700,-268 1084,-268 1084,-70 700,-70"/>
</g>
<g id="clust28" class="cluster">
<title>cluster_AgentupdateModule_declarations</title>
<polygon fill="none" stroke="#000000" points="908,-78 908,-130 1076,-130 1076,-78 908,-78"/>
</g>
<g id="clust30" class="cluster">
<title>cluster_AgentupdateModule_imports</title>
<polygon fill="none" stroke="#000000" points="708,-78 708,-130 900,-130 900,-78 708,-78"/>
</g>
<g id="clust31" class="cluster">
<title>cluster_AgentupdateModule_exports</title>
<polygon fill="none" stroke="#000000" points="811,-208 811,-260 983,-260 983,-208 811,-208"/>
</g>
<g id="clust40" class="cluster">
<title>cluster_AppModule</title>
<polygon fill="none" stroke="#000000" stroke-dasharray="1,5" points="1092,-70 1092,-268 1514,-268 1514,-70 1092,-70"/>
</g>
<g id="clust41" class="cluster">
<title>cluster_AppModule_declarations</title>
<polygon fill="none" stroke="#000000" points="1384,-78 1384,-130 1506,-130 1506,-78 1384,-78"/>
</g>
<g id="clust43" class="cluster">
<title>cluster_AppModule_imports</title>
<polygon fill="none" stroke="#000000" points="1232,-78 1232,-130 1376,-130 1376,-78 1232,-78"/>
</g>
<g id="clust45" class="cluster">
<title>cluster_AppModule_bootstrap</title>
<polygon fill="none" stroke="#000000" points="1242,-208 1242,-260 1366,-260 1366,-208 1242,-208"/>
</g>
<g id="clust46" class="cluster">
<title>cluster_AppModule_providers</title>
<polygon fill="none" stroke="#000000" points="1100,-78 1100,-130 1224,-130 1224,-78 1100,-78"/>
</g>
<g id="clust53" class="cluster">
<title>cluster_EmailnotificationModule</title>
<polygon fill="none" stroke="#000000" stroke-dasharray="1,5" points="1522,-70 1522,-268 1960,-268 1960,-70 1522,-70"/>
</g>
<g id="clust54" class="cluster">
<title>cluster_EmailnotificationModule_declarations</title>
<polygon fill="none" stroke="#000000" points="1756,-78 1756,-130 1952,-130 1952,-78 1756,-78"/>
</g>
<g id="clust56" class="cluster">
<title>cluster_EmailnotificationModule_imports</title>
<polygon fill="none" stroke="#000000" points="1530,-78 1530,-130 1748,-130 1748,-78 1530,-78"/>
</g>
<g id="clust57" class="cluster">
<title>cluster_EmailnotificationModule_exports</title>
<polygon fill="none" stroke="#000000" points="1647,-208 1647,-260 1845,-260 1845,-208 1647,-208"/>
</g>
<g id="clust66" class="cluster">
<title>cluster_ServiceconfModule</title>
<polygon fill="none" stroke="#000000" stroke-dasharray="1,5" points="1968,-70 1968,-268 2344,-268 2344,-70 1968,-70"/>
</g>
<g id="clust67" class="cluster">
<title>cluster_ServiceconfModule_declarations</title>
<polygon fill="none" stroke="#000000" points="2172,-78 2172,-130 2336,-130 2336,-78 2172,-78"/>
</g>
<g id="clust69" class="cluster">
<title>cluster_ServiceconfModule_imports</title>
<polygon fill="none" stroke="#000000" points="1976,-78 1976,-130 2164,-130 2164,-78 1976,-78"/>
</g>
<g id="clust70" class="cluster">
<title>cluster_ServiceconfModule_exports</title>
<polygon fill="none" stroke="#000000" points="2077,-208 2077,-260 2245,-260 2245,-208 2077,-208"/>
</g>
<!-- AgentslistComponent -->
<g id="node1" class="node">
<title>AgentslistComponent</title>
<polygon fill="#ffffb3" stroke="#000000" points="348.1052,-122 209.8948,-122 209.8948,-86 348.1052,-86 348.1052,-122"/>
<text text-anchor="middle" x="279" y="-99.8" font-family="Times,serif" font-size="14.00" fill="#000000">AgentslistComponent</text>
</g>
<!-- AgentslistModule -->
<g id="node2" class="node">
<title>AgentslistModule</title>
<polygon fill="#8dd3c7" stroke="#000000" points="249.323,-187 246.323,-191 225.323,-191 222.323,-187 132.677,-187 132.677,-151 249.323,-151 249.323,-187"/>
<text text-anchor="middle" x="191" y="-164.8" font-family="Times,serif" font-size="14.00" fill="#000000">AgentslistModule</text>
</g>
<!-- AgentslistComponent&#45;&gt;AgentslistModule -->
<g id="edge1" class="edge">
<title>AgentslistComponent&#45;&gt;AgentslistModule</title>
<path fill="none" stroke="#000000" d="M229.5544,-122.1061C229.5544,-122.1061 229.5544,-140.991 229.5544,-140.991"/>
<polygon fill="#000000" stroke="#000000" points="226.0544,-140.9909 229.5544,-150.991 233.0544,-140.991 226.0544,-140.9909"/>
</g>
<!-- AgentslistComponent  -->
<g id="node4" class="node">
<title>AgentslistComponent </title>
<polygon fill="#fb8072" stroke="#000000" points="261.6057,-252 120.3943,-252 120.3943,-216 261.6057,-216 261.6057,-252"/>
<text text-anchor="middle" x="191" y="-229.8" font-family="Times,serif" font-size="14.00" fill="#000000">AgentslistComponent </text>
</g>
<!-- AgentslistModule&#45;&gt;AgentslistComponent  -->
<g id="edge3" class="edge">
<title>AgentslistModule&#45;&gt;AgentslistComponent </title>
<path fill="none" stroke="#000000" stroke-dasharray="5,2" d="M191,-187.1061C191,-187.1061 191,-205.991 191,-205.991"/>
<polygon fill="#000000" stroke="#000000" points="187.5001,-205.9909 191,-215.991 194.5001,-205.991 187.5001,-205.9909"/>
</g>
<!-- AgentslistRoutingModule -->
<g id="node3" class="node">
<title>AgentslistRoutingModule</title>
<polygon fill="#8dd3c7" stroke="#000000" points="185.941,-122 182.941,-126 161.941,-126 158.941,-122 24.059,-122 24.059,-86 185.941,-86 185.941,-122"/>
<text text-anchor="middle" x="105" y="-99.8" font-family="Times,serif" font-size="14.00" fill="#000000">AgentslistRoutingModule</text>
</g>
<!-- AgentslistRoutingModule&#45;&gt;AgentslistModule -->
<g id="edge2" class="edge">
<title>AgentslistRoutingModule&#45;&gt;AgentslistModule</title>
<path fill="none" stroke="#000000" d="M159.2795,-122.1061C159.2795,-122.1061 159.2795,-140.991 159.2795,-140.991"/>
<polygon fill="#000000" stroke="#000000" points="155.7795,-140.9909 159.2795,-150.991 162.7795,-140.991 155.7795,-140.9909"/>
</g>
<!-- AgentsComponent -->
<g id="node5" class="node">
<title>AgentsComponent</title>
<polygon fill="#ffffb3" stroke="#000000" points="676.4888,-122 555.5112,-122 555.5112,-86 676.4888,-86 676.4888,-122"/>
<text text-anchor="middle" x="616" y="-99.8" font-family="Times,serif" font-size="14.00" fill="#000000">AgentsComponent</text>
</g>
<!-- AgentsModule -->
<g id="node6" class="node">
<title>AgentsModule</title>
<polygon fill="#8dd3c7" stroke="#000000" points="586.7064,-187 583.7064,-191 562.7064,-191 559.7064,-187 487.2936,-187 487.2936,-151 586.7064,-151 586.7064,-187"/>
<text text-anchor="middle" x="537" y="-164.8" font-family="Times,serif" font-size="14.00" fill="#000000">AgentsModule</text>
</g>
<!-- AgentsComponent&#45;&gt;AgentsModule -->
<g id="edge4" class="edge">
<title>AgentsComponent&#45;&gt;AgentsModule</title>
<path fill="none" stroke="#000000" d="M571.0544,-122.1061C571.0544,-122.1061 571.0544,-140.991 571.0544,-140.991"/>
<polygon fill="#000000" stroke="#000000" points="567.5544,-140.9909 571.0544,-150.991 574.5544,-140.991 567.5544,-140.9909"/>
</g>
<!-- AgentsComponent  -->
<g id="node8" class="node">
<title>AgentsComponent </title>
<polygon fill="#fb8072" stroke="#000000" points="599.4898,-252 474.5102,-252 474.5102,-216 599.4898,-216 599.4898,-252"/>
<text text-anchor="middle" x="537" y="-229.8" font-family="Times,serif" font-size="14.00" fill="#000000">AgentsComponent </text>
</g>
<!-- AgentsModule&#45;&gt;AgentsComponent  -->
<g id="edge6" class="edge">
<title>AgentsModule&#45;&gt;AgentsComponent </title>
<path fill="none" stroke="#000000" stroke-dasharray="5,2" d="M537,-187.1061C537,-187.1061 537,-205.991 537,-205.991"/>
<polygon fill="#000000" stroke="#000000" points="533.5001,-205.9909 537,-215.991 540.5001,-205.991 533.5001,-205.9909"/>
</g>
<!-- AgentsRoutingModule -->
<g id="node7" class="node">
<title>AgentsRoutingModule</title>
<polygon fill="#8dd3c7" stroke="#000000" points="532.3244,-122 529.3244,-126 508.3244,-126 505.3244,-122 387.6756,-122 387.6756,-86 532.3244,-86 532.3244,-122"/>
<text text-anchor="middle" x="460" y="-99.8" font-family="Times,serif" font-size="14.00" fill="#000000">AgentsRoutingModule</text>
</g>
<!-- AgentsRoutingModule&#45;&gt;AgentsModule -->
<g id="edge5" class="edge">
<title>AgentsRoutingModule&#45;&gt;AgentsModule</title>
<path fill="none" stroke="#000000" d="M509.7795,-122.1061C509.7795,-122.1061 509.7795,-140.991 509.7795,-140.991"/>
<polygon fill="#000000" stroke="#000000" points="506.2795,-140.9909 509.7795,-150.991 513.2795,-140.991 506.2795,-140.9909"/>
</g>
<!-- AgentupdateComponent -->
<g id="node9" class="node">
<title>AgentupdateComponent</title>
<polygon fill="#ffffb3" stroke="#000000" points="1068.3641,-122 915.6359,-122 915.6359,-86 1068.3641,-86 1068.3641,-122"/>
<text text-anchor="middle" x="992" y="-99.8" font-family="Times,serif" font-size="14.00" fill="#000000">AgentupdateComponent</text>
</g>
<!-- AgentupdateModule -->
<g id="node10" class="node">
<title>AgentupdateModule</title>
<polygon fill="#8dd3c7" stroke="#000000" points="962.5814,-187 959.5814,-191 938.5814,-191 935.5814,-187 831.4186,-187 831.4186,-151 962.5814,-151 962.5814,-187"/>
<text text-anchor="middle" x="897" y="-164.8" font-family="Times,serif" font-size="14.00" fill="#000000">AgentupdateModule</text>
</g>
<!-- AgentupdateComponent&#45;&gt;AgentupdateModule -->
<g id="edge7" class="edge">
<title>AgentupdateComponent&#45;&gt;AgentupdateModule</title>
<path fill="none" stroke="#000000" d="M939.0544,-122.1061C939.0544,-122.1061 939.0544,-140.991 939.0544,-140.991"/>
<polygon fill="#000000" stroke="#000000" points="935.5544,-140.9909 939.0544,-150.991 942.5544,-140.991 935.5544,-140.9909"/>
</g>
<!-- AgentupdateComponent  -->
<g id="node12" class="node">
<title>AgentupdateComponent </title>
<polygon fill="#fb8072" stroke="#000000" points="975.3644,-252 818.6356,-252 818.6356,-216 975.3644,-216 975.3644,-252"/>
<text text-anchor="middle" x="897" y="-229.8" font-family="Times,serif" font-size="14.00" fill="#000000">AgentupdateComponent </text>
</g>
<!-- AgentupdateModule&#45;&gt;AgentupdateComponent  -->
<g id="edge9" class="edge">
<title>AgentupdateModule&#45;&gt;AgentupdateComponent </title>
<path fill="none" stroke="#000000" stroke-dasharray="5,2" d="M897,-187.1061C897,-187.1061 897,-205.991 897,-205.991"/>
<polygon fill="#000000" stroke="#000000" points="893.5001,-205.9909 897,-215.991 900.5001,-205.991 893.5001,-205.9909"/>
</g>
<!-- AgentupdateRoutingModule -->
<g id="node11" class="node">
<title>AgentupdateRoutingModule</title>
<polygon fill="#8dd3c7" stroke="#000000" points="892.1993,-122 889.1993,-126 868.1993,-126 865.1993,-122 715.8007,-122 715.8007,-86 892.1993,-86 892.1993,-122"/>
<text text-anchor="middle" x="804" y="-99.8" font-family="Times,serif" font-size="14.00" fill="#000000">AgentupdateRoutingModule</text>
</g>
<!-- AgentupdateRoutingModule&#45;&gt;AgentupdateModule -->
<g id="edge8" class="edge">
<title>AgentupdateRoutingModule&#45;&gt;AgentupdateModule</title>
<path fill="none" stroke="#000000" d="M861.7795,-122.1061C861.7795,-122.1061 861.7795,-140.991 861.7795,-140.991"/>
<polygon fill="#000000" stroke="#000000" points="858.2795,-140.9909 861.7795,-150.991 865.2795,-140.991 858.2795,-140.9909"/>
</g>
<!-- AppComponent -->
<g id="node13" class="node">
<title>AppComponent</title>
<polygon fill="#ffffb3" stroke="#000000" points="1497.9399,-122 1392.0601,-122 1392.0601,-86 1497.9399,-86 1497.9399,-122"/>
<text text-anchor="middle" x="1445" y="-99.8" font-family="Times,serif" font-size="14.00" fill="#000000">AppComponent</text>
</g>
<!-- AppModule -->
<g id="node14" class="node">
<title>AppModule</title>
<polygon fill="#8dd3c7" stroke="#000000" points="1345.6571,-187 1342.6571,-191 1321.6571,-191 1318.6571,-187 1262.3429,-187 1262.3429,-151 1345.6571,-151 1345.6571,-187"/>
<text text-anchor="middle" x="1304" y="-164.8" font-family="Times,serif" font-size="14.00" fill="#000000">AppModule</text>
</g>
<!-- AppComponent&#45;&gt;AppModule -->
<g id="edge10" class="edge">
<title>AppComponent&#45;&gt;AppModule</title>
<path fill="none" stroke="#000000" d="M1445,-122.1061C1445,-141.3391 1445,-169 1445,-169 1445,-169 1355.9229,-169 1355.9229,-169"/>
<polygon fill="#000000" stroke="#000000" points="1355.9229,-165.5001 1345.9229,-169 1355.9229,-172.5001 1355.9229,-165.5001"/>
</g>
<!-- AppComponent  -->
<g id="node16" class="node">
<title>AppComponent </title>
<polygon fill="#80b1d3" stroke="#000000" points="1358.439,-252 1249.561,-252 1249.561,-216 1358.439,-216 1358.439,-252"/>
<text text-anchor="middle" x="1304" y="-229.8" font-family="Times,serif" font-size="14.00" fill="#000000">AppComponent </text>
</g>
<!-- AppModule&#45;&gt;AppComponent  -->
<g id="edge12" class="edge">
<title>AppModule&#45;&gt;AppComponent </title>
<path fill="none" stroke="#000000" stroke-dasharray="1,5" d="M1304,-187.1061C1304,-187.1061 1304,-205.991 1304,-205.991"/>
<polygon fill="#000000" stroke="#000000" points="1300.5001,-205.9909 1304,-215.991 1307.5001,-205.991 1300.5001,-205.9909"/>
</g>
<!-- AppRoutingModule -->
<g id="node15" class="node">
<title>AppRoutingModule</title>
<polygon fill="#8dd3c7" stroke="#000000" points="1368.2744,-122 1365.2744,-126 1344.2744,-126 1341.2744,-122 1239.7256,-122 1239.7256,-86 1368.2744,-86 1368.2744,-122"/>
<text text-anchor="middle" x="1304" y="-99.8" font-family="Times,serif" font-size="14.00" fill="#000000">AppRoutingModule</text>
</g>
<!-- AppRoutingModule&#45;&gt;AppModule -->
<g id="edge11" class="edge">
<title>AppRoutingModule&#45;&gt;AppModule</title>
<path fill="none" stroke="#000000" d="M1304,-122.1061C1304,-122.1061 1304,-140.991 1304,-140.991"/>
<polygon fill="#000000" stroke="#000000" points="1300.5001,-140.9909 1304,-150.991 1307.5001,-140.991 1300.5001,-140.9909"/>
</g>
<!-- ApiService -->
<g id="node17" class="node">
<title>ApiService</title>
<ellipse fill="#fdb462" stroke="#000000" cx="1162" cy="-104" rx="54.4508" ry="18"/>
<text text-anchor="middle" x="1162" y="-99.8" font-family="Times,serif" font-size="14.00" fill="#000000">ApiService</text>
</g>
<!-- ApiService&#45;&gt;AppModule -->
<g id="edge13" class="edge">
<title>ApiService&#45;&gt;AppModule</title>
<path fill="none" stroke="#000000" d="M1162,-122.1061C1162,-141.3391 1162,-169 1162,-169 1162,-169 1252.1633,-169 1252.1633,-169"/>
<polygon fill="#000000" stroke="#000000" points="1252.1634,-172.5001 1262.1633,-169 1252.1633,-165.5001 1252.1634,-172.5001"/>
</g>
<!-- EmailnotificationComponent -->
<g id="node18" class="node">
<title>EmailnotificationComponent</title>
<polygon fill="#ffffb3" stroke="#000000" points="1943.8145,-122 1764.1855,-122 1764.1855,-86 1943.8145,-86 1943.8145,-122"/>
<text text-anchor="middle" x="1854" y="-99.8" font-family="Times,serif" font-size="14.00" fill="#000000">EmailnotificationComponent</text>
</g>
<!-- EmailnotificationModule -->
<g id="node19" class="node">
<title>EmailnotificationModule</title>
<polygon fill="#8dd3c7" stroke="#000000" points="1824.5323,-187 1821.5323,-191 1800.5323,-191 1797.5323,-187 1667.4677,-187 1667.4677,-151 1824.5323,-151 1824.5323,-187"/>
<text text-anchor="middle" x="1746" y="-164.8" font-family="Times,serif" font-size="14.00" fill="#000000">EmailnotificationModule</text>
</g>
<!-- EmailnotificationComponent&#45;&gt;EmailnotificationModule -->
<g id="edge14" class="edge">
<title>EmailnotificationComponent&#45;&gt;EmailnotificationModule</title>
<path fill="none" stroke="#000000" d="M1794.5544,-122.1061C1794.5544,-122.1061 1794.5544,-140.991 1794.5544,-140.991"/>
<polygon fill="#000000" stroke="#000000" points="1791.0544,-140.9909 1794.5544,-150.991 1798.0544,-140.991 1791.0544,-140.9909"/>
</g>
<!-- EmailnotificationComponent  -->
<g id="node21" class="node">
<title>EmailnotificationComponent </title>
<polygon fill="#fb8072" stroke="#000000" points="1837.3143,-252 1654.6857,-252 1654.6857,-216 1837.3143,-216 1837.3143,-252"/>
<text text-anchor="middle" x="1746" y="-229.8" font-family="Times,serif" font-size="14.00" fill="#000000">EmailnotificationComponent </text>
</g>
<!-- EmailnotificationModule&#45;&gt;EmailnotificationComponent  -->
<g id="edge16" class="edge">
<title>EmailnotificationModule&#45;&gt;EmailnotificationComponent </title>
<path fill="none" stroke="#000000" stroke-dasharray="5,2" d="M1746,-187.1061C1746,-187.1061 1746,-205.991 1746,-205.991"/>
<polygon fill="#000000" stroke="#000000" points="1742.5001,-205.9909 1746,-215.991 1749.5001,-205.991 1742.5001,-205.9909"/>
</g>
<!-- EmailnotificationRoutingModule -->
<g id="node20" class="node">
<title>EmailnotificationRoutingModule</title>
<polygon fill="#8dd3c7" stroke="#000000" points="1740.1497,-122 1737.1497,-126 1716.1497,-126 1713.1497,-122 1537.8503,-122 1537.8503,-86 1740.1497,-86 1740.1497,-122"/>
<text text-anchor="middle" x="1639" y="-99.8" font-family="Times,serif" font-size="14.00" fill="#000000">EmailnotificationRoutingModule</text>
</g>
<!-- EmailnotificationRoutingModule&#45;&gt;EmailnotificationModule -->
<g id="edge15" class="edge">
<title>EmailnotificationRoutingModule&#45;&gt;EmailnotificationModule</title>
<path fill="none" stroke="#000000" d="M1703.7795,-122.1061C1703.7795,-122.1061 1703.7795,-140.991 1703.7795,-140.991"/>
<polygon fill="#000000" stroke="#000000" points="1700.2795,-140.9909 1703.7795,-150.991 1707.2795,-140.991 1700.2795,-140.9909"/>
</g>
<!-- ServiceconfComponent -->
<g id="node22" class="node">
<title>ServiceconfComponent</title>
<polygon fill="#ffffb3" stroke="#000000" points="2328.1853,-122 2179.8147,-122 2179.8147,-86 2328.1853,-86 2328.1853,-122"/>
<text text-anchor="middle" x="2254" y="-99.8" font-family="Times,serif" font-size="14.00" fill="#000000">ServiceconfComponent</text>
</g>
<!-- ServiceconfModule -->
<g id="node23" class="node">
<title>ServiceconfModule</title>
<polygon fill="#8dd3c7" stroke="#000000" points="2224.4032,-187 2221.4032,-191 2200.4032,-191 2197.4032,-187 2097.5968,-187 2097.5968,-151 2224.4032,-151 2224.4032,-187"/>
<text text-anchor="middle" x="2161" y="-164.8" font-family="Times,serif" font-size="14.00" fill="#000000">ServiceconfModule</text>
</g>
<!-- ServiceconfComponent&#45;&gt;ServiceconfModule -->
<g id="edge17" class="edge">
<title>ServiceconfComponent&#45;&gt;ServiceconfModule</title>
<path fill="none" stroke="#000000" d="M2202.0544,-122.1061C2202.0544,-122.1061 2202.0544,-140.991 2202.0544,-140.991"/>
<polygon fill="#000000" stroke="#000000" points="2198.5544,-140.9909 2202.0544,-150.991 2205.5544,-140.991 2198.5544,-140.9909"/>
</g>
<!-- ServiceconfComponent  -->
<g id="node25" class="node">
<title>ServiceconfComponent </title>
<polygon fill="#fb8072" stroke="#000000" points="2236.6855,-252 2085.3145,-252 2085.3145,-216 2236.6855,-216 2236.6855,-252"/>
<text text-anchor="middle" x="2161" y="-229.8" font-family="Times,serif" font-size="14.00" fill="#000000">ServiceconfComponent </text>
</g>
<!-- ServiceconfModule&#45;&gt;ServiceconfComponent  -->
<g id="edge19" class="edge">
<title>ServiceconfModule&#45;&gt;ServiceconfComponent </title>
<path fill="none" stroke="#000000" stroke-dasharray="5,2" d="M2161,-187.1061C2161,-187.1061 2161,-205.991 2161,-205.991"/>
<polygon fill="#000000" stroke="#000000" points="2157.5001,-205.9909 2161,-215.991 2164.5001,-205.991 2157.5001,-205.9909"/>
</g>
<!-- ServiceconfRoutingModule -->
<g id="node24" class="node">
<title>ServiceconfRoutingModule</title>
<polygon fill="#8dd3c7" stroke="#000000" points="2155.5211,-122 2152.5211,-126 2131.5211,-126 2128.5211,-122 1984.4789,-122 1984.4789,-86 2155.5211,-86 2155.5211,-122"/>
<text text-anchor="middle" x="2070" y="-99.8" font-family="Times,serif" font-size="14.00" fill="#000000">ServiceconfRoutingModule</text>
</g>
<!-- ServiceconfRoutingModule&#45;&gt;ServiceconfModule -->
<g id="edge18" class="edge">
<title>ServiceconfRoutingModule&#45;&gt;ServiceconfModule</title>
<path fill="none" stroke="#000000" d="M2126.7795,-122.1061C2126.7795,-122.1061 2126.7795,-140.991 2126.7795,-140.991"/>
<polygon fill="#000000" stroke="#000000" points="2123.2795,-140.9909 2126.7795,-150.991 2130.2795,-140.991 2123.2795,-140.9909"/>
</g>
</g>
</svg>
